<svg width="62" height="40" viewBox="0 0 62 40" fill="none" xmlns="http://www.w3.org/2000/svg">
<path d="M40.1719 9.5238C40.1719 14.7837 35.9745 19.0476 30.7969 19.0476C25.6192 19.0476 21.4219 14.7837 21.4219 9.5238C21.4219 4.26395 25.6192 0 30.7969 0C35.9745 0 40.1719 4.26395 40.1719 9.5238Z" fill="#00598B"/>
<path d="M13.9215 28.621C13.9215 24.3857 17.3012 20.9523 21.4703 20.9523H23.2965L27.0465 36.1904H34.5465L38.2965 20.9523H40.1227C44.2918 20.9523 47.6715 24.3857 47.6715 28.621V39.8066H13.9215V28.621Z" fill="#00598B"/>
<path d="M27.9843 20.9523H33.6093L32.6718 23.8095H28.9218L27.9843 20.9523Z" fill="#00598B"/>
<path d="M32.6718 25.5319H28.9218L27.9843 36.1904H33.6093L32.6718 25.5319Z" fill="#00598B"/>
</svg>
